<svg width="32" height="32" viewBox="0 0 32 32" fill="none" xmlns="http://www.w3.org/2000/svg">
<g filter="url(#filter0_i_9_984)">
<g clip-path="url(#clip0_9_984)">
<rect width="32" height="32" fill="#F6FAFF"/>
<path fill-rule="evenodd" clip-rule="evenodd" d="M15.764 9.18784C15.764 9.18784 15.764 9.18784 15.764 9.18784L10.3092 11.8289L15.9999 14.5729L21.6889 11.8321L16.2352 9.18797C16.0864 9.11586 15.9128 9.1158 15.764 9.18784ZM23.7925 11.5609C23.7683 11.5185 23.7403 11.4795 23.7092 11.4439C23.5251 11.2044 23.2854 11.0058 23.0031 10.8689L16.8634 7.89223C16.8634 7.89223 16.8634 7.89223 16.8634 7.89223C16.3181 7.62788 15.6819 7.62771 15.1365 7.89176L8.99324 10.8661C8.99324 10.8661 8.99324 10.8661 8.99324 10.8661C8.70613 11.0051 8.46303 11.208 8.27765 11.4528C8.25497 11.4799 8.23408 11.509 8.21525 11.54C7.99823 11.8613 7.8759 12.2455 7.87592 12.6485L7.87615 19.3635C7.87615 19.3635 7.87615 19.3635 7.87615 19.3635C7.87616 20.1239 8.31149 20.817 8.99628 21.1473L15.14 24.1097C15.6835 24.3717 16.3167 24.3717 16.8602 24.1097L23.004 21.1473C23.6887 20.817 24.1241 20.1239 24.1241 19.3635L24.1194 12.6496C24.1194 12.6495 24.1194 12.6496 24.1194 12.6496C24.1192 12.2548 24.0016 11.878 23.7925 11.5609ZM22.6796 12.9531L16.7198 15.8245L16.7199 22.5787L22.3784 19.8503C22.3784 19.8503 22.3785 19.8502 22.3784 19.8503C22.5652 19.7602 22.6839 19.5712 22.6841 19.3639C22.6841 19.3638 22.6841 19.3636 22.6841 19.3635L22.6796 12.9531ZM15.2799 22.5785L9.62183 19.8502C9.62181 19.8502 9.62185 19.8503 9.62183 19.8502C9.43492 19.7601 9.31615 19.571 9.31615 19.3635L9.31593 12.9486L15.2798 15.8243L15.2799 22.5785Z" fill="#64A7FF"/>
</g>
<path d="M0.5 16C0.5 7.43959 7.43959 0.5 16 0.5C24.5604 0.5 31.5 7.43959 31.5 16C31.5 24.5604 24.5604 31.5 16 31.5C7.43959 31.5 0.5 24.5604 0.5 16Z" stroke="#F0F2F5"/>
</g>
<defs>
<filter id="filter0_i_9_984" x="0" y="-2" width="32" height="34" filterUnits="userSpaceOnUse" color-interpolation-filters="sRGB">
<feFlood flood-opacity="0" result="BackgroundImageFix"/>
<feBlend mode="normal" in="SourceGraphic" in2="BackgroundImageFix" result="shape"/>
<feColorMatrix in="SourceAlpha" type="matrix" values="0 0 0 0 0 0 0 0 0 0 0 0 0 0 0 0 0 0 127 0" result="hardAlpha"/>
<feOffset dy="-2"/>
<feGaussianBlur stdDeviation="2"/>
<feComposite in2="hardAlpha" operator="arithmetic" k2="-1" k3="1"/>
<feColorMatrix type="matrix" values="0 0 0 0 0.137255 0 0 0 0 0.533333 0 0 0 0 1 0 0 0 0.08 0"/>
<feBlend mode="normal" in2="shape" result="effect1_innerShadow_9_984"/>
</filter>
<clipPath id="clip0_9_984">
<path d="M0 16C0 7.16344 7.16344 0 16 0C24.8366 0 32 7.16344 32 16C32 24.8366 24.8366 32 16 32C7.16344 32 0 24.8366 0 16Z" fill="white"/>
</clipPath>
</defs>
</svg>
