<svg width="11" height="12" viewBox="0 0 11 12" fill="none" xmlns="http://www.w3.org/2000/svg">
<path d="M8.61686 7.55631C8.92507 7.55631 9.22636 7.6477 9.48263 7.81893C9.73889 7.99016 9.93863 8.23354 10.0566 8.51829C10.1745 8.80304 10.2054 9.11637 10.1453 9.41865C10.0851 9.72094 9.93671 9.99861 9.71877 10.2165C9.50083 10.4345 9.22317 10.5829 8.92088 10.643C8.61859 10.7032 8.30526 10.6723 8.02051 10.5544C7.73577 10.4364 7.49239 10.2367 7.32116 9.9804C7.14992 9.72414 7.05853 9.42285 7.05853 9.11464V2.88255C7.05853 2.57434 7.14992 2.27306 7.32116 2.01679C7.49239 1.76052 7.73577 1.56079 8.02051 1.44284C8.30526 1.32489 8.61859 1.29403 8.92088 1.35416C9.22317 1.41429 9.50083 1.56271 9.71877 1.78064C9.93671 1.99858 10.0851 2.27625 10.1453 2.57854C10.2054 2.88082 10.1745 3.19415 10.0566 3.4789C9.93863 3.76365 9.73889 4.00703 9.48263 4.17826C9.22636 4.34949 8.92507 4.44089 8.61686 4.44089H2.38353C2.07532 4.44089 1.77403 4.34949 1.51777 4.17826C1.2615 4.00703 1.06176 3.76365 0.943817 3.4789C0.825871 3.19415 0.79501 2.88082 0.855139 2.57854C0.915268 2.27625 1.06368 1.99858 1.28162 1.78064C1.49956 1.56271 1.77723 1.41429 2.07951 1.35416C2.3818 1.29403 2.69513 1.32489 2.97988 1.44284C3.26463 1.56079 3.508 1.76052 3.67924 2.01679C3.85047 2.27306 3.94186 2.57434 3.94186 2.88255V9.11589C3.94186 9.4241 3.85047 9.72538 3.67924 9.98165C3.508 10.2379 3.26463 10.4377 2.97988 10.5556C2.69513 10.6735 2.3818 10.7044 2.07951 10.6443C1.77723 10.5841 1.49956 10.4357 1.28162 10.2178C1.06368 9.99986 0.915268 9.72219 0.855139 9.4199C0.79501 9.11761 0.825871 8.80429 0.943817 8.51954C1.06176 8.23479 1.2615 7.99141 1.51777 7.82018C1.77403 7.64895 2.07532 7.55755 2.38353 7.55755L8.61686 7.55631Z" stroke="#19213D" stroke-width="1.2" stroke-linecap="round" stroke-linejoin="round"/>
</svg>
