<svg width="32" height="32" viewBox="0 0 32 32" fill="none" xmlns="http://www.w3.org/2000/svg">
<g filter="url(#filter0_i_9_970)">
<g clip-path="url(#clip0_9_970)">
<rect width="32" height="32" fill="#F6FAFF"/>
<path d="M16.0001 1.59961C8.04815 1.59961 1.60001 8.04663 1.60001 15.9997C1.60001 22.3621 5.72605 27.7598 11.4477 29.6639C12.1673 29.7972 12.4316 29.3516 12.4316 28.9712C12.4316 28.6279 12.4181 27.4934 12.412 26.2902C8.40583 27.1612 7.56049 24.5911 7.56049 24.5911C6.90546 22.9267 5.96164 22.4842 5.96164 22.4842C4.65518 21.5904 6.06012 21.6087 6.06012 21.6087C7.50617 21.7103 8.26759 23.0927 8.26759 23.0927C9.55191 25.2942 11.6363 24.6577 12.458 24.2898C12.5872 23.359 12.9605 22.7238 13.3722 22.3642C10.1739 22 6.81149 20.7653 6.81149 15.2476C6.81149 13.6755 7.37403 12.3909 8.29526 11.3825C8.14573 11.0197 7.65287 9.55513 8.43474 7.57162C8.43474 7.57162 9.64396 7.18458 12.3958 9.0477C13.5444 8.72854 14.7763 8.56862 16.0001 8.5632C17.2238 8.56862 18.4567 8.72854 19.6075 9.0477C22.3561 7.18458 23.5636 7.57162 23.5636 7.57162C24.3474 9.55513 23.8543 11.0197 23.7047 11.3825C24.628 12.3909 25.1867 13.6754 25.1867 15.2476C25.1867 20.7784 21.818 21.9963 18.6115 22.3527C19.128 22.7996 19.5882 23.676 19.5882 25.0194C19.5882 26.9461 19.5715 28.4968 19.5715 28.9712C19.5715 29.3544 19.8307 29.8034 20.5607 29.662C26.2792 27.7558 30.4 22.3599 30.4 15.9997C30.4 8.04663 23.9528 1.59961 16.0001 1.59961Z" fill="#19213D"/>
<path d="M6.99326 22.1129C6.96164 22.1844 6.84893 22.2058 6.7465 22.1568C6.64203 22.1098 6.5833 22.0122 6.61718 21.9404C6.64824 21.8668 6.76095 21.8462 6.86519 21.8957C6.96989 21.9426 7.02952 22.041 6.99326 22.1129ZM7.70161 22.7449C7.63294 22.8086 7.49866 22.779 7.40752 22.6783C7.31333 22.5779 7.29571 22.4438 7.36539 22.3791C7.4362 22.3155 7.56642 22.3452 7.66084 22.4457C7.75503 22.5472 7.77344 22.6805 7.70161 22.7449ZM8.18758 23.5535C8.09926 23.6148 7.95493 23.5573 7.86582 23.4293C7.77761 23.3013 7.77761 23.1477 7.86774 23.0862C7.95718 23.0246 8.09926 23.0799 8.18961 23.207C8.2777 23.3372 8.27781 23.4907 8.18758 23.5535ZM9.00931 24.4901C8.93036 24.577 8.76231 24.5538 8.63921 24.435C8.5134 24.3189 8.47828 24.1541 8.55745 24.067C8.63729 23.9798 8.80636 24.0043 8.93036 24.1221C9.05539 24.238 9.09345 24.404 9.00931 24.4901ZM10.0714 24.8063C10.0367 24.919 9.87474 24.9703 9.71166 24.9224C9.54881 24.873 9.4422 24.7409 9.47506 24.627C9.50894 24.5135 9.67157 24.46 9.83589 24.5113C9.99852 24.5604 10.1052 24.6916 10.0714 24.8063ZM11.2802 24.9404C11.2843 25.0592 11.146 25.1576 10.9748 25.1598C10.8025 25.1635 10.6633 25.0674 10.6615 24.9506C10.6615 24.8307 10.7967 24.7331 10.9688 24.7303C11.14 24.7269 11.2802 24.8223 11.2802 24.9404ZM12.4677 24.8948C12.4882 25.0107 12.3692 25.1298 12.1992 25.1614C12.0321 25.1919 11.8773 25.1204 11.856 25.0055C11.8352 24.8867 11.9565 24.7678 12.1233 24.737C12.2936 24.7074 12.446 24.7771 12.4677 24.8948Z" fill="#19213D"/>
</g>
<path d="M0.5 16C0.5 7.43959 7.43959 0.5 16 0.5C24.5604 0.5 31.5 7.43959 31.5 16C31.5 24.5604 24.5604 31.5 16 31.5C7.43959 31.5 0.5 24.5604 0.5 16Z" stroke="#F0F2F5"/>
</g>
<defs>
<filter id="filter0_i_9_970" x="0" y="-2" width="32" height="34" filterUnits="userSpaceOnUse" color-interpolation-filters="sRGB">
<feFlood flood-opacity="0" result="BackgroundImageFix"/>
<feBlend mode="normal" in="SourceGraphic" in2="BackgroundImageFix" result="shape"/>
<feColorMatrix in="SourceAlpha" type="matrix" values="0 0 0 0 0 0 0 0 0 0 0 0 0 0 0 0 0 0 127 0" result="hardAlpha"/>
<feOffset dy="-2"/>
<feGaussianBlur stdDeviation="2"/>
<feComposite in2="hardAlpha" operator="arithmetic" k2="-1" k3="1"/>
<feColorMatrix type="matrix" values="0 0 0 0 0.137255 0 0 0 0 0.533333 0 0 0 0 1 0 0 0 0.08 0"/>
<feBlend mode="normal" in2="shape" result="effect1_innerShadow_9_970"/>
</filter>
<clipPath id="clip0_9_970">
<path d="M0 16C0 7.16344 7.16344 0 16 0C24.8366 0 32 7.16344 32 16C32 24.8366 24.8366 32 16 32C7.16344 32 0 24.8366 0 16Z" fill="white"/>
</clipPath>
</defs>
</svg>
