<svg width="10" height="10" viewBox="0 0 10 10" fill="none" xmlns="http://www.w3.org/2000/svg">
<rect width="10" height="10" fill="#F6FAFF"/>
<path d="M5.00002 0.5C2.51505 0.5 0.5 2.51469 0.5 5.00002C0.5 6.98828 1.78939 8.67506 3.5774 9.2701C3.80228 9.31175 3.88487 9.17248 3.88487 9.05362C3.88487 8.94633 3.88067 8.59181 3.87876 8.2158C2.62682 8.48801 2.36265 7.68485 2.36265 7.68485C2.15795 7.16471 1.86301 7.02643 1.86301 7.02643C1.45474 6.74712 1.89379 6.75284 1.89379 6.75284C2.34568 6.7846 2.58362 7.21659 2.58362 7.21659C2.98497 7.90455 3.63634 7.70564 3.89313 7.59069C3.9335 7.29981 4.05015 7.10132 4.17882 6.98895C3.17933 6.87513 2.12859 6.48927 2.12859 4.765C2.12859 4.27373 2.30438 3.87227 2.59227 3.55714C2.54554 3.44378 2.39152 2.9861 2.63585 2.36625C2.63585 2.36625 3.01373 2.2453 3.87368 2.82753C4.23261 2.72779 4.61758 2.67782 5.00002 2.67612C5.38245 2.67782 5.76771 2.72779 6.12734 2.82753C6.98627 2.2453 7.36362 2.36625 7.36362 2.36625C7.60855 2.9861 7.45446 3.44378 7.40773 3.55714C7.69625 3.87227 7.87085 4.27369 7.87085 4.765C7.87085 6.49336 6.81813 6.87396 5.81609 6.98535C5.97749 7.125 6.12131 7.39887 6.12131 7.81868C6.12131 8.42078 6.11608 8.90539 6.11608 9.05362C6.11608 9.17336 6.19708 9.31369 6.42521 9.2695C8.21223 8.67379 9.5 6.98761 9.5 5.00002C9.5 2.51469 7.48524 0.5 5.00002 0.5Z" fill="#19213D"/>
<path d="M2.18539 6.91039C2.17551 6.93273 2.14029 6.93944 2.10828 6.92412C2.07563 6.90944 2.05728 6.87895 2.06787 6.8565C2.07757 6.83349 2.1128 6.82706 2.14537 6.84252C2.17809 6.85717 2.19672 6.88795 2.18539 6.91039ZM2.40675 7.10789C2.38529 7.1278 2.34333 7.11855 2.31485 7.0871C2.28541 7.05573 2.27991 7.0138 2.30168 6.99358C2.32381 6.97371 2.3645 6.98299 2.39401 7.0144C2.42344 7.04613 2.4292 7.08777 2.40675 7.10789ZM2.55862 7.36059C2.53102 7.37975 2.48591 7.36179 2.45807 7.32176C2.4305 7.28178 2.4305 7.23378 2.45867 7.21455C2.48662 7.19531 2.53102 7.2126 2.55925 7.25231C2.58678 7.293 2.58681 7.34096 2.55862 7.36059ZM2.81541 7.65327C2.79074 7.68045 2.73822 7.67318 2.69975 7.63605C2.66044 7.59977 2.64946 7.54827 2.6742 7.52106C2.69915 7.49382 2.75199 7.50148 2.79074 7.53829C2.82981 7.5745 2.8417 7.62638 2.81541 7.65327ZM3.1473 7.75209C3.13647 7.78731 3.08586 7.80334 3.03489 7.78837C2.984 7.77295 2.95068 7.73166 2.96095 7.69605C2.97154 7.66058 3.02236 7.64388 3.07372 7.65991C3.12454 7.67526 3.15789 7.71623 3.1473 7.75209ZM3.52508 7.79398C3.52635 7.83111 3.48311 7.86189 3.42961 7.86256C3.37579 7.86372 3.33227 7.83369 3.33171 7.7972C3.33171 7.75971 3.37395 7.72922 3.42774 7.72834C3.48124 7.72728 3.52508 7.7571 3.52508 7.79398ZM3.89615 7.77976C3.90257 7.81597 3.86537 7.85317 3.81225 7.86305C3.76002 7.87258 3.71167 7.85024 3.705 7.81435C3.6985 7.77722 3.73641 7.74006 3.78854 7.73042C3.84176 7.72117 3.88937 7.74295 3.89615 7.77976Z" fill="#19213D"/>
</svg>
