<svg width="21" height="21" viewBox="0 0 21 21" fill="none" xmlns="http://www.w3.org/2000/svg">
<g clip-path="url(#clip0_1299_25361)">
<path d="M10.3301 4.65755C11.8051 4.65755 13.1259 5.16589 14.1676 6.15755L17.0217 3.30339C15.2884 1.69089 13.0259 0.699219 10.3301 0.699219C6.42173 0.699219 3.04256 2.94089 1.39673 6.20755L4.72173 8.78672C5.50923 6.41588 7.72173 4.65755 10.3301 4.65755Z" fill="#EA4335"/>
<path d="M19.9051 10.929C19.9051 10.2749 19.8426 9.64154 19.7467 9.0332H10.3301V12.7915H15.7217C15.4801 14.0249 14.7801 15.0749 13.7301 15.7832L16.9509 18.2832C18.8301 16.5415 19.9051 13.9665 19.9051 10.929Z" fill="#4285F4"/>
<path d="M4.71758 12.6112C4.51758 12.007 4.40091 11.3654 4.40091 10.6987C4.40091 10.032 4.51341 9.39036 4.71758 8.7862L1.39258 6.20703C0.713411 7.55703 0.330078 9.08203 0.330078 10.6987C0.330078 12.3154 0.713411 13.8404 1.39674 15.1904L4.71758 12.6112Z" fill="#FBBC05"/>
<path d="M10.3301 20.6991C13.0301 20.6991 15.3009 19.8116 16.9509 18.2783L13.7301 15.7783C12.8342 16.3824 11.6801 16.7366 10.3301 16.7366C7.72175 16.7366 5.50924 14.9783 4.71758 12.6074L1.39258 15.1866C3.04258 18.4574 6.42174 20.6991 10.3301 20.6991Z" fill="#34A853"/>
</g>
<defs>
<clipPath id="clip0_1299_25361">
<rect width="20" height="20" fill="white" transform="translate(0.330078 0.699219)"/>
</clipPath>
</defs>
</svg>
