<svg width="16" height="17" viewBox="0 0 16 17" fill="none" xmlns="http://www.w3.org/2000/svg">
<path d="M3.72259 7.08482C4.47975 7.08482 5.20591 6.78404 5.74131 6.24864C6.27671 5.71324 6.5775 4.98708 6.5775 4.22991C6.5775 3.47274 6.27671 2.74658 5.74131 2.21118C5.20591 1.67578 4.47975 1.375 3.72259 1.375C2.96542 1.375 2.23926 1.67578 1.70386 2.21118C1.16846 2.74658 0.867676 3.47274 0.867676 4.22991C0.867676 4.98708 1.16846 5.71324 1.70386 6.24864C2.23926 6.78404 2.96542 7.08482 3.72259 7.08482Z" stroke="#666F8D" stroke-width="1.4" stroke-linecap="round" stroke-linejoin="round"/>
<path d="M12.2776 7.08484C13.0347 7.08484 13.7609 6.78406 14.2963 6.24866C14.8317 5.71326 15.1325 4.9871 15.1325 4.22993C15.1325 3.47276 14.8317 2.7466 14.2963 2.2112C13.7609 1.6758 13.0347 1.37502 12.2776 1.37502C11.5204 1.37502 10.7942 1.6758 10.2588 2.2112C9.72344 2.7466 9.42266 3.47276 9.42266 4.22993C9.42266 4.9871 9.72344 5.71326 10.2588 6.24866C10.7942 6.78406 11.5204 7.08484 12.2776 7.08484Z" stroke="#666F8D" stroke-width="1.4" stroke-linecap="round" stroke-linejoin="round"/>
<path d="M3.72259 15.624C4.0975 15.624 4.46874 15.5502 4.81511 15.4067C5.16149 15.2632 5.47621 15.053 5.74131 14.7878C6.00641 14.5227 6.21671 14.208 6.36018 13.8616C6.50365 13.5153 6.5775 13.144 6.5775 12.7691C6.5775 12.3942 6.50365 12.023 6.36018 11.6766C6.21671 11.3302 6.00641 11.0155 5.74131 10.7504C5.47621 10.4853 5.16149 10.275 4.81511 10.1315C4.46874 9.98806 4.0975 9.91421 3.72259 9.91421C2.96542 9.91421 2.23926 10.215 1.70386 10.7504C1.16846 11.2858 0.867676 12.012 0.867676 12.7691C0.867676 13.5263 1.16846 14.2524 1.70386 14.7878C2.23926 15.3232 2.96542 15.624 3.72259 15.624Z" stroke="#666F8D" stroke-width="1.4" stroke-linecap="round" stroke-linejoin="round"/>
<path d="M12.2776 15.624C12.6525 15.624 13.0237 15.5502 13.3701 15.4067C13.7165 15.2632 14.0312 15.053 14.2963 14.7878C14.5614 14.5227 14.7717 14.208 14.9152 13.8616C15.0586 13.5153 15.1325 13.144 15.1325 12.7691C15.1325 12.3942 15.0586 12.023 14.9152 11.6766C14.7717 11.3302 14.5614 11.0155 14.2963 10.7504C14.0312 10.4853 13.7165 10.275 13.3701 10.1315C13.0237 9.98806 12.6525 9.91421 12.2776 9.91421C11.5204 9.91421 10.7942 10.215 10.2588 10.7504C9.72344 11.2858 9.42266 12.012 9.42266 12.7691C9.42266 13.5263 9.72344 14.2524 10.2588 14.7878C10.7942 15.3232 11.5204 15.624 12.2776 15.624Z" stroke="#666F8D" stroke-width="1.4" stroke-linecap="round" stroke-linejoin="round"/>
</svg>
