<svg width="16" height="17" viewBox="0 0 16 17" fill="none" xmlns="http://www.w3.org/2000/svg">
<path d="M7.75717 2.01953H8.24337C8.78042 2.01953 9.21577 2.40009 9.21577 2.86953V10.9445C9.21577 11.414 8.78042 11.7945 8.24337 11.7945H7.75717C7.22011 11.7945 6.78477 11.414 6.78477 10.9445V2.86953C6.78477 2.40009 7.22011 2.01953 7.75717 2.01953Z" stroke="#666F8D" stroke-width="1.4" stroke-linecap="round" stroke-linejoin="round"/>
<path d="M2.87262 5.41953H3.35805C3.89423 5.41953 4.32891 5.80009 4.32891 6.26953V10.9445C4.32891 11.414 3.89423 11.7945 3.35805 11.7945H2.87262C2.33643 11.7945 1.90176 11.414 1.90176 10.9445V6.26953C1.90176 5.80009 2.33643 5.41953 2.87262 5.41953Z" stroke="#666F8D" stroke-width="1.4" stroke-linecap="round" stroke-linejoin="round"/>
<path d="M1.2002 14.3445C1.2002 13.9924 1.48561 13.707 1.8377 13.707H14.1627C14.5148 13.707 14.8002 13.9924 14.8002 14.3445C14.8002 14.6966 14.5148 14.982 14.1627 14.982H1.8377C1.48561 14.982 1.2002 14.6966 1.2002 14.3445Z" stroke="#666F8D" stroke-width="1.4" stroke-linecap="round" stroke-linejoin="round"/>
<path d="M12.6439 5.41953H13.1301C13.6671 5.41953 14.1025 5.80009 14.1025 6.26953V10.9445C14.1025 11.414 13.6671 11.7945 13.1301 11.7945H12.6439C12.1068 11.7945 11.6715 11.414 11.6715 10.9445V6.26953C11.6715 5.80009 12.1068 5.41953 12.6439 5.41953Z" stroke="#666F8D" stroke-width="1.4" stroke-linecap="round" stroke-linejoin="round"/>
</svg>
