<svg width="16" height="17" viewBox="0 0 16 17" fill="none" xmlns="http://www.w3.org/2000/svg">
<path d="M8.00072 8.70341C7.94751 8.70257 7.8968 8.68073 7.85962 8.64266C7.82244 8.60458 7.80182 8.55336 7.80225 8.50014C7.80225 8.38811 7.89188 8.29688 8.00072 8.29688" stroke="#19213D" stroke-width="0.96" stroke-linecap="round" stroke-linejoin="round"/>
<path d="M4.55527 8.69701C4.52921 8.6968 4.50344 8.69146 4.47944 8.68129C4.45544 8.67112 4.43368 8.65633 4.4154 8.63775C4.39712 8.61917 4.38268 8.59718 4.3729 8.57302C4.36312 8.54886 4.35819 8.52301 4.3584 8.49694C4.3584 8.38651 4.44643 8.29688 4.55527 8.29688" stroke="#19213D" stroke-width="0.96" stroke-linecap="round" stroke-linejoin="round"/>
<path d="M11.4488 8.69701C11.4228 8.6968 11.397 8.69146 11.373 8.68129C11.349 8.67112 11.3272 8.65633 11.309 8.63775C11.2907 8.61917 11.2762 8.59718 11.2665 8.57302C11.2567 8.54886 11.2517 8.52301 11.252 8.49694C11.252 8.38651 11.34 8.29688 11.4488 8.29688" stroke="#19213D" stroke-width="0.96" stroke-linecap="round" stroke-linejoin="round"/>
<path d="M8.00537 8.70341C8.03185 8.7032 8.05804 8.69778 8.08243 8.68745C8.10681 8.67712 8.12893 8.66209 8.14751 8.64322C8.16608 8.62434 8.18076 8.60199 8.1907 8.57744C8.20064 8.55289 8.20565 8.52663 8.20544 8.50014C8.20565 8.47366 8.20064 8.44739 8.1907 8.42285C8.18076 8.3983 8.16608 8.37595 8.14751 8.35707C8.12893 8.3382 8.10681 8.32317 8.08243 8.31284C8.05804 8.30251 8.03185 8.29708 8.00537 8.29688" stroke="#19213D" stroke-width="1.3" stroke-linecap="round" stroke-linejoin="round"/>
<path d="M4.55615 8.69701C4.58222 8.6968 4.60798 8.69146 4.63198 8.68129C4.65598 8.67112 4.67774 8.65633 4.69602 8.63775C4.7143 8.61917 4.72875 8.59718 4.73853 8.57302C4.74831 8.54886 4.75323 8.52301 4.75302 8.49694C4.75323 8.47088 4.74831 8.44503 4.73853 8.42087C4.72875 8.39671 4.7143 8.37471 4.69602 8.35613C4.67774 8.33756 4.65598 8.32276 4.63198 8.31259C4.60798 8.30243 4.58222 8.29708 4.55615 8.29688" stroke="#19213D" stroke-width="1.3" stroke-linecap="round" stroke-linejoin="round"/>
<path d="M11.4492 8.69701C11.4753 8.6968 11.501 8.69146 11.525 8.68129C11.549 8.67112 11.5708 8.65633 11.5891 8.63775C11.6074 8.61917 11.6218 8.59718 11.6316 8.57302C11.6414 8.54886 11.6463 8.52301 11.6461 8.49694C11.6463 8.47088 11.6414 8.44503 11.6316 8.42087C11.6218 8.39671 11.6074 8.37471 11.5891 8.35613C11.5708 8.33756 11.549 8.32276 11.525 8.31259C11.501 8.30243 11.4753 8.29708 11.4492 8.29688" stroke="#19213D" stroke-width="1.3" stroke-linecap="round" stroke-linejoin="round"/>
<path d="M8.00252 1.29688C6.69276 1.29732 5.40782 1.65435 4.28558 2.32967C3.16333 3.00499 2.24612 3.97312 1.63236 5.13018C1.02061 6.28693 0.736771 7.58893 0.811528 8.89534C0.886285 10.2018 1.3168 11.4629 2.0565 12.5423L0.800078 15.7018L4.16122 14.5686C5.10584 15.1611 6.17499 15.5265 7.28467 15.6361C8.39435 15.7457 9.51433 15.5965 10.5566 15.2002C11.5989 14.804 12.5351 14.1714 13.2917 13.3522C14.0482 12.5331 14.6045 11.5496 14.9169 10.4792C15.2267 9.40903 15.283 8.28141 15.0813 7.18571C14.8796 6.09001 14.4255 5.05635 13.7549 4.16665C13.084 3.27531 12.2151 2.55209 11.2168 2.05405C10.2185 1.55602 9.11815 1.29681 8.00252 1.29688Z" stroke="#19213D" stroke-width="1.4" stroke-linecap="round" stroke-linejoin="round"/>
</svg>
