<svg width="16" height="17" viewBox="0 0 16 17" fill="none" xmlns="http://www.w3.org/2000/svg">
<path d="M8.00013 4.50081C8.42448 4.50081 8.83145 4.33224 9.13151 4.03218C9.43157 3.73212 9.60015 3.32515 9.60015 2.9008C9.60015 2.47645 9.43157 2.06948 9.13151 1.76941C8.83145 1.46935 8.42448 1.30078 8.00013 1.30078C7.57578 1.30078 7.16881 1.46935 6.86875 1.76941C6.56869 2.06948 6.40012 2.47645 6.40012 2.9008C6.40012 3.32515 6.56869 3.73212 6.86875 4.03218C7.16881 4.33224 7.57578 4.50081 8.00013 4.50081ZM8.00013 4.50081V12.5008M2.39982 12.5008C2.82417 12.5008 3.23114 12.6693 3.5312 12.9694C3.83126 13.2694 3.99983 13.6764 3.99983 14.1008C3.99983 14.5251 3.83126 14.9321 3.5312 15.2321C3.23114 15.5322 2.82417 15.7008 2.39982 15.7008C1.97547 15.7008 1.5685 15.5322 1.26844 15.2321C0.968377 14.9321 0.799805 14.5251 0.799805 14.1008C0.799805 13.6764 0.968377 13.2694 1.26844 12.9694C1.5685 12.6693 1.97547 12.5008 2.39982 12.5008ZM2.39982 12.5008L2.40008 9.30059C2.40008 8.87624 2.56865 8.46927 2.86871 8.16921C3.16877 7.86915 3.57574 7.70058 4.00009 7.70058H12.0002C12.4245 7.70058 12.8315 7.86915 13.1315 8.16921C13.4316 8.46927 13.6002 8.87624 13.6002 9.30059L13.6004 12.5008M8.00013 12.5008C8.42448 12.5008 8.83145 12.6693 9.13151 12.9694C9.43157 13.2694 9.60015 13.6764 9.60015 14.1008C9.60015 14.5251 9.43157 14.9321 9.13151 15.2321C8.83145 15.5322 8.42448 15.7008 8.00013 15.7008C7.57578 15.7008 7.16881 15.5322 6.86875 15.2321C6.56869 14.9321 6.40012 14.5251 6.40012 14.1008C6.40012 13.6764 6.56869 13.2694 6.86875 12.9694C7.16881 12.6693 7.57578 12.5008 8.00013 12.5008ZM13.6004 12.5008C14.0248 12.5008 14.4318 12.6693 14.7318 12.9694C15.0319 13.2694 15.2005 13.6764 15.2005 14.1008C15.2005 14.5251 15.0319 14.9321 14.7318 15.2321C14.4318 15.5322 14.0248 15.7008 13.6004 15.7008C13.1761 15.7008 12.7691 15.5322 12.4691 15.2321C12.169 14.9321 12.0004 14.5251 12.0004 14.1008C12.0004 13.6764 12.169 13.2694 12.4691 12.9694C12.7691 12.6693 13.1761 12.5008 13.6004 12.5008Z" stroke="#19213D" stroke-width="1.2" stroke-linecap="round" stroke-linejoin="round"/>
</svg>
