<svg width="81" height="30" viewBox="0 0 81 30" fill="none" xmlns="http://www.w3.org/2000/svg">
<g clip-path="url(#clip0_1299_25382)">
<g clip-path="url(#clip1_1299_25382)">
<g clip-path="url(#clip2_1299_25382)">
<path d="M39.3782 1.83008H15.54V25.9434H39.3782V1.83008Z" fill="#868686"/>
<path d="M20.5663 20.8676H24.3233V11.9812H20.5663V20.8676ZM22.4402 6.65234C22.0184 6.65234 21.6062 6.77883 21.2555 7.01582C20.9049 7.2528 20.6316 7.58964 20.4702 7.98373C20.3088 8.37782 20.2666 8.81147 20.3488 9.22984C20.4311 9.64821 20.6342 10.0325 20.9324 10.3341C21.2306 10.6357 21.6105 10.8411 22.0242 10.9243C22.4378 11.0076 22.8665 10.9649 23.2562 10.8016C23.6458 10.6384 23.9788 10.3619 24.2131 10.0073C24.4474 9.65263 24.5725 9.23564 24.5725 8.80908C24.5725 8.52585 24.5173 8.2454 24.4101 7.98373C24.303 7.72206 24.1459 7.48431 23.9479 7.28403C23.7499 7.08376 23.5149 6.9249 23.2562 6.81651C22.9975 6.70813 22.7202 6.65234 22.4402 6.65234ZM30.5957 6.9043V10.7138H34.3621V6.9043H30.5957ZM25.5763 20.8676H29.3427V6.9043H25.5763V20.8676ZM30.5957 15.7907H34.3621V11.9812H30.5957V15.7907Z" fill="white"/>
<path d="M64.4714 1.83008H40.6331V25.9434H64.4714V1.83008Z" fill="#868686"/>
<path d="M44.7867 6.92578C45.9374 6.92578 46.7944 7.41466 46.7944 8.75534C46.7944 10.0246 45.9114 10.5548 44.7867 10.5548H43.8572V6.92578H44.7867ZM44.5431 9.99824H44.729C45.4838 9.99824 46.088 9.68046 46.088 8.7497C46.088 7.77381 45.4838 7.4974 44.729 7.4974H44.5431V9.99824Z" fill="white"/>
<path d="M47.4373 6.92578H49.4488V7.52936H48.1196V8.40184H49.3465V8.99038H48.1196V9.94559H49.4692V10.5548H47.4429L47.4373 6.92578Z" fill="white"/>
<path d="M51.9916 7.58579C51.7743 7.48593 51.5388 7.43279 51.3001 7.42973C50.9394 7.42973 50.7108 7.59144 50.7108 7.84152C50.7108 8.0916 50.8223 8.20442 51.3242 8.40562C51.9563 8.6463 52.224 8.95655 52.224 9.49245C52.224 10.19 51.7276 10.6206 50.9431 10.6206C50.6365 10.6229 50.3318 10.57 50.0434 10.4646L50.1066 9.82527C50.3536 9.9574 50.6284 10.0277 50.9078 10.0302C51.2685 10.0302 51.5269 9.86852 51.5269 9.57707C51.5269 9.28561 51.3856 9.15587 50.8688 8.9528C50.2665 8.71963 50.0081 8.42818 50.0081 7.91297C50.0081 7.26802 50.4988 6.86375 51.2257 6.86375C51.505 6.85818 51.7831 6.90209 52.0474 6.99349L51.9916 7.58579Z" fill="white"/>
<path d="M52.8403 6.92578H53.5259V10.5548H52.8403V6.92578Z" fill="white"/>
<path d="M56.9894 7.67932C56.7084 7.54213 56.3998 7.47262 56.0878 7.47624C55.3665 7.47624 54.8999 7.95949 54.8999 8.72855C54.8999 9.4976 55.3238 9.98649 56.0729 9.98649C56.2079 9.98938 56.3426 9.97228 56.4726 9.93572V9.03128H55.742V8.45778H57.1196V10.3982C56.7523 10.5283 56.3653 10.5919 55.9763 10.5863C54.9334 10.5863 54.1582 9.87931 54.1582 8.72102C54.1582 7.59283 54.9018 6.88582 56.0878 6.88582C56.4082 6.87697 56.7277 6.92404 57.0322 7.02497L56.9894 7.67932Z" fill="white"/>
<path d="M60.0864 6.92578H60.7054V10.5548H59.8317L58.9598 8.77602C58.7832 8.41688 58.5601 7.89791 58.4672 7.65911C58.482 7.88287 58.4913 8.5485 58.4913 8.85876V10.5511H57.8723V6.92578H58.7888L59.6458 8.71961C59.7722 8.9791 60.0064 9.5244 60.1087 9.78012H60.118C60.1031 9.51499 60.0882 8.81363 60.0882 8.44885L60.0864 6.92578Z" fill="white"/>
<path d="M46.9383 15.717H46.1947L45.8991 14.8783H44.4807L44.1832 15.717H43.4712L44.806 12.0879H45.5793L46.9383 15.717ZM45.4288 13.4813C45.3563 13.2631 45.2429 12.8457 45.1945 12.6596H45.1852C45.1369 12.8476 45.0105 13.2631 44.938 13.4813L44.6554 14.3274H45.7113L45.4288 13.4813Z" fill="white"/>
<path d="M49.4008 13.2876C49.3655 13.1221 49.2986 12.8043 49.2744 12.6069H49.2632C49.2391 12.8043 49.1852 13.1165 49.1517 13.2876L48.6461 15.717H47.7779L46.8484 12.0879H47.5827L48.0753 14.2616C48.0995 14.3801 48.2073 14.9047 48.2352 15.1491H48.2445C48.2798 14.9047 48.3765 14.3801 48.4007 14.2616L48.845 12.0879H49.7559L50.2225 14.2616C50.2522 14.3857 50.3452 14.9103 50.3787 15.1491H50.3879C50.4233 14.9103 50.5199 14.397 50.5497 14.2616L51.0367 12.0879H51.7172L50.8081 15.717H49.9455L49.4008 13.2876Z" fill="white"/>
<path d="M55.0504 15.717H54.3068L54.0094 14.8783H52.5928L52.2954 15.717H51.5889L52.9237 12.0879H53.6971L55.0504 15.717ZM53.5409 13.4813C53.4684 13.2631 53.355 12.8457 53.3067 12.6596H53.2974C53.2491 12.8476 53.1226 13.2631 53.0483 13.4813L52.7676 14.3274H53.8253L53.5409 13.4813Z" fill="white"/>
<path d="M55.5071 12.0879H56.4849C57.3215 12.0879 57.8773 12.276 57.8773 13.0394C57.8887 13.2468 57.8217 13.4508 57.6898 13.6101C57.5579 13.7693 57.3711 13.8718 57.1672 13.8968C57.4051 13.9645 57.4925 14.1112 57.6003 14.3819L58.1264 15.6982H57.3773L57.0055 14.6677C56.8642 14.2917 56.801 14.1901 56.3827 14.1901H56.1968V15.6944H55.5089L55.5071 12.0879ZM56.1949 13.6467H56.3938C56.9348 13.6467 57.1783 13.5019 57.1783 13.1372C57.1783 12.7423 56.8865 12.6596 56.3938 12.6596H56.1949V13.6467Z" fill="white"/>
<path d="M59.6463 12.0879C60.7951 12.0879 61.654 12.5767 61.654 13.9174C61.654 15.1866 60.771 15.7169 59.6463 15.7169H58.7168V12.0879H59.6463ZM59.4027 15.1603H59.5886C60.3452 15.1603 60.9476 14.8501 60.9476 13.9099C60.9476 12.9321 60.3434 12.6576 59.5886 12.6576H59.4027V15.1603Z" fill="white"/>
<path d="M43.8169 17.5548C44.1467 17.4113 44.5028 17.3402 44.8617 17.346C45.5086 17.346 46.0608 17.6751 46.0608 18.3708C46.0608 18.8183 45.8544 19.2189 45.2075 19.8337C44.99 20.0399 44.7569 20.2285 44.5103 20.3978C44.8264 20.3978 45.2372 20.3828 45.5477 20.3828H46.1351V20.9356H43.7463V20.3602C44.871 19.437 45.3227 18.9556 45.3227 18.4479C45.3227 18.0719 45.0457 17.9045 44.6944 17.9045C44.4093 17.9106 44.1309 17.993 43.8876 18.1433L43.8169 17.5548Z" fill="white"/>
<path d="M49.1674 19.1757C49.1674 20.3227 48.7956 21.0184 47.8939 21.0184C46.9923 21.0184 46.6038 20.3321 46.6038 19.217C46.6038 17.9534 47.0202 17.3536 47.9181 17.3536C48.7454 17.3461 49.1674 17.9553 49.1674 19.1757ZM47.3083 19.155C47.3083 20.0481 47.5147 20.4956 47.8921 20.4956C48.2695 20.4956 48.4628 20.0481 48.4628 19.1907C48.4628 18.3333 48.2583 17.8745 47.8865 17.8745C47.5147 17.8745 47.3102 18.2994 47.3102 19.1474L47.3083 19.155Z" fill="white"/>
<path d="M49.6342 17.5548C49.9633 17.4113 50.3188 17.3402 50.6771 17.346C51.324 17.346 51.8762 17.6751 51.8762 18.3708C51.8762 18.8183 51.6698 19.2189 51.0229 19.8337C50.8058 20.0404 50.5727 20.229 50.3257 20.3978C50.6418 20.3978 51.0526 20.3828 51.3649 20.3828H51.9524V20.9356H49.5635V20.3602C50.679 19.437 51.1381 18.9556 51.1381 18.4479C51.1381 18.0719 50.863 17.9045 50.5116 17.9045C50.226 17.9104 49.9469 17.9928 49.703 18.1433L49.6342 17.5548Z" fill="white"/>
<path d="M53.0048 19.3917V18.8633C53.0587 18.8633 53.12 18.8633 53.1739 18.8633C53.767 18.8633 54.1035 18.7072 54.1035 18.3575C54.1035 18.0416 53.832 17.8686 53.4305 17.8686C53.1506 17.8712 52.8747 17.9354 52.6218 18.0567L52.5772 17.4926C52.884 17.3866 53.2067 17.3351 53.5309 17.3402C54.3191 17.3402 54.795 17.6862 54.795 18.2635C54.795 18.7354 54.4641 19.0156 53.9622 19.0871V19.1021C54.4883 19.1566 54.8396 19.4782 54.8396 19.9689C54.8396 20.6083 54.2429 21.005 53.3952 21.005C53.0842 21.0084 52.7746 20.964 52.4768 20.8734L52.5121 20.2792C52.7801 20.3964 53.068 20.4602 53.3598 20.4672C53.8023 20.4672 54.1276 20.3055 54.1276 19.9238C54.1276 19.5421 53.7818 19.386 53.1795 19.386C53.1386 19.386 53.0643 19.386 53.0048 19.3917Z" fill="white"/>
<path fill-rule="evenodd" clip-rule="evenodd" d="M2.93538 11.2344C2.73336 11.5662 2.52059 11.838 2.31225 12.0475L2.29451 12.0087C1.99368 11.2415 2.48708 9.34365 3.33615 8.19307C3.57221 7.87122 3.79719 7.64672 3.99965 7.51172L4.00789 7.56376C4.09353 8.59049 3.6456 10.0597 2.93538 11.2344Z" fill="#868686"/>
<path fill-rule="evenodd" clip-rule="evenodd" d="M7.59265 26.9141C7.72306 27.1773 7.85553 27.4139 7.89132 27.7348L7.8427 27.8001C6.95083 28.9478 5.64875 29.168 5.12716 28.0715C5.00141 27.7494 4.94871 27.3777 4.95902 26.996L5.0118 26.9398C6.00939 25.988 7.0604 26.0875 7.59265 26.9141Z" fill="#868686"/>
<path fill-rule="evenodd" clip-rule="evenodd" d="M5.08262 24.1436C5.15749 24.4576 5.15768 24.8223 5.15312 25.1611L5.10212 25.2163C4.16135 26.1969 3.06296 26.0183 2.86626 24.6244C2.81999 24.2323 2.83402 23.8154 2.9168 23.3951L2.97052 23.3504C3.97459 22.6069 4.79172 23.0755 5.08262 24.1436Z" fill="#868686"/>
<path fill-rule="evenodd" clip-rule="evenodd" d="M3.2047 20.9091C3.21521 21.2739 3.16407 21.6626 3.06769 22.0581L3.01686 22.1019C2.1319 22.8378 1.22285 22.3265 1.35579 20.7024C1.37391 20.2655 1.46662 19.8083 1.63241 19.3611L1.68382 19.3283C2.58484 18.8649 3.1918 19.6239 3.2047 20.9091Z" fill="#868686"/>
<path fill-rule="evenodd" clip-rule="evenodd" d="M2.06608 17.3403C2.01894 17.7391 1.91883 18.1428 1.78141 18.5397L1.73392 18.5703C0.887623 19.0858 0.301465 18.1999 0.657149 16.4794C0.736533 16.0122 0.930483 15.5298 1.11418 15.1043L1.1599 15.0866C1.94358 14.8899 2.29214 15.9215 2.06608 17.3403Z" fill="#868686"/>
<path fill-rule="evenodd" clip-rule="evenodd" d="M1.75228 13.5959C1.62074 14.021 1.50839 14.419 1.33387 14.8035L1.29184 14.8204C0.528084 15.0869 0.239438 13.9087 0.772858 12.1631C0.937311 11.6812 1.13918 11.2245 1.35515 10.825L1.39421 10.8203C2.05375 10.8797 2.14296 12.1282 1.75228 13.5959Z" fill="#868686"/>
<path fill-rule="evenodd" clip-rule="evenodd" d="M7.60917 27.0694C7.71823 27.3188 7.92413 27.4066 8.11522 27.465L8.15489 27.4099C8.83301 26.3554 9.04668 25.0016 8.72752 24.2522C8.64946 24.0186 8.524 23.8633 8.36659 23.7695L8.32287 23.8168C7.55471 24.6862 7.15131 26.2497 7.60917 27.0694Z" fill="#868686"/>
<path fill-rule="evenodd" clip-rule="evenodd" d="M5.4282 24.3423C5.49268 24.639 5.59772 24.8676 5.76656 24.9749L5.80787 24.927C6.52873 24.0201 6.91616 22.6098 6.78745 21.6607C6.75554 21.3814 6.66694 21.1757 6.5548 21.0137L6.51166 21.0503C5.75929 21.7098 5.17193 23.2917 5.4282 24.3423Z" fill="#868686"/>
<path fill-rule="evenodd" clip-rule="evenodd" d="M3.86523 21.1573C3.87917 21.5026 3.94282 21.7831 4.04034 21.9901L4.08219 21.954C4.86054 21.1998 5.35127 19.8416 5.42282 18.7246C5.42706 18.4146 5.39042 18.1511 5.34128 17.918L5.30003 17.9415C4.54292 18.3962 3.83875 19.8859 3.86523 21.1573Z" fill="#868686"/>
<path fill-rule="evenodd" clip-rule="evenodd" d="M2.97539 17.6528C2.93724 18.0371 2.95107 18.3709 3.00669 18.6352L3.04828 18.6126C3.81756 18.0986 4.49732 16.7762 4.71791 15.5773C4.76357 15.2397 4.81398 14.918 4.79001 14.6465L4.75097 14.6558C4.02397 14.8592 3.17689 16.2227 2.97539 17.6528Z" fill="#868686"/>
<path fill-rule="evenodd" clip-rule="evenodd" d="M2.82614 13.9833C2.69368 14.4031 2.6797 14.7723 2.67847 15.0902L2.71903 15.0816C3.46767 14.821 4.32568 13.613 4.71171 12.3618C4.84007 12.0004 4.91312 11.6622 4.94362 11.3499L4.90724 11.3439C4.2439 11.2843 3.23895 12.471 2.82614 13.9833Z" fill="#868686"/>
<path fill-rule="evenodd" clip-rule="evenodd" d="M3.90963 7.73001C3.96861 7.76333 4.08053 7.66795 4.15909 7.5188C5.4408 5.00461 6.98798 2.66247 8.65146 0.703052C8.7508 0.58168 8.81192 0.414079 8.78859 0.326652C8.76506 0.239838 8.66299 0.270757 8.56062 0.395048C6.85285 2.40653 5.26525 4.8106 3.9501 7.39012C3.86888 7.54485 3.85065 7.6967 3.90963 7.73001Z" fill="#868686"/>
<path fill-rule="evenodd" clip-rule="evenodd" d="M14.073 29.8084C14.1139 29.7207 14.0755 29.6519 13.9872 29.655C12.4817 29.7711 11.1782 29.4766 10.1976 28.8013C10.1369 28.7625 10.0313 28.796 9.95999 28.8779C9.88884 28.9589 9.88182 29.0576 9.94393 29.0977C10.9502 29.7911 12.289 30.0933 13.8333 29.9738C13.9248 29.9704 14.0321 29.8964 14.073 29.8084Z" fill="#868686"/>
<path fill-rule="evenodd" clip-rule="evenodd" d="M2.45703 8.52417C2.51805 8.54774 2.62594 8.43402 2.69839 8.27094C3.89527 5.56061 5.38479 2.97331 7.02985 0.768694C7.13042 0.640433 7.18848 0.472867 7.15957 0.39538C7.13131 0.315763 7.02401 0.359114 6.92062 0.491163C5.23524 2.74916 3.70867 5.40057 2.48141 8.17951C2.40716 8.34689 2.39625 8.50146 2.45703 8.52417Z" fill="#868686"/>
<path fill-rule="evenodd" clip-rule="evenodd" d="M0.741059 10.5062C0.800774 10.5116 0.897784 10.3742 0.959345 10.2007C1.92102 7.30501 3.20584 4.45164 4.68207 1.92245C4.7701 1.76933 4.81258 1.59309 4.7773 1.52953C4.74123 1.46721 4.63877 1.54357 4.54866 1.7004C3.03785 4.28973 1.72301 7.2089 0.738732 10.1734C0.675463 10.352 0.677667 10.5004 0.741059 10.5062Z" fill="#868686"/>
<path fill-rule="evenodd" clip-rule="evenodd" d="M4.4322 9.23092C4.49311 9.25425 4.59395 9.15741 4.65766 9.01428C5.70814 6.64241 7.01393 4.37625 8.46006 2.44348C8.54851 2.33161 8.59666 2.17725 8.56841 2.09848C8.53938 2.02006 8.442 2.04983 8.35089 2.16488C6.8643 4.15284 5.52076 6.48347 4.4408 8.92241C4.37475 9.06989 4.37102 9.20851 4.4322 9.23092Z" fill="#868686"/>
<path fill-rule="evenodd" clip-rule="evenodd" d="M4.84054 11.3742C4.90075 11.3796 4.98758 11.2763 5.03649 11.1426C5.78362 8.91828 6.7762 6.73692 7.92055 4.79198C7.98838 4.6739 8.01431 4.52692 7.97847 4.4638C7.94249 4.40012 7.85655 4.44779 7.78599 4.56965C6.60698 6.57386 5.5843 8.82134 4.814 11.114C4.76378 11.252 4.77663 11.3682 4.84054 11.3742Z" fill="#868686"/>
<path fill-rule="evenodd" clip-rule="evenodd" d="M78.6997 10.9206C78.7238 11.2858 78.6895 11.5627 78.6125 11.7548L78.5688 11.7126C77.783 10.8575 77.1416 9.42303 76.9305 8.14883C76.871 7.788 76.8619 7.47444 76.893 7.2168L76.9351 7.24418C77.7221 7.79382 78.6226 9.61542 78.6997 10.9206Z" fill="#868686"/>
<path fill-rule="evenodd" clip-rule="evenodd" d="M73.4268 26.8188C73.3219 27.066 73.1192 27.1514 72.9307 27.2081L72.8905 27.1522C72.2054 26.0944 71.9763 24.7434 72.283 24.0004C72.3575 23.7684 72.48 23.6152 72.6348 23.5234L72.6782 23.5709C73.4505 24.4453 73.8702 26.0072 73.4268 26.8188Z" fill="#868686"/>
<path fill-rule="evenodd" clip-rule="evenodd" d="M75.5855 24.0758C75.5249 24.3704 75.4238 24.5969 75.2577 24.7017L75.216 24.6536C74.4909 23.7421 74.0899 22.3331 74.2065 21.3896C74.2348 21.1119 74.3202 20.908 74.4294 20.748L74.4724 20.785C75.2259 21.4505 75.8269 23.0326 75.5855 24.0758Z" fill="#868686"/>
<path fill-rule="evenodd" clip-rule="evenodd" d="M77.1234 20.8809C77.1137 21.2245 77.054 21.5031 76.9595 21.7079L76.9175 21.6715C76.1368 20.9111 75.6344 19.5528 75.551 18.4399C75.5431 18.1311 75.5764 17.8692 75.6231 17.6387L75.664 17.6617C76.4196 18.1236 77.135 19.6154 77.1234 20.8809Z" fill="#868686"/>
<path fill-rule="evenodd" clip-rule="evenodd" d="M77.9864 17.3753C78.0289 17.7584 78.0191 18.0907 77.9675 18.354L77.9256 18.3301C77.1569 17.8092 76.4673 16.4844 76.2345 15.288C76.1854 14.9513 76.1317 14.6304 76.1526 14.3613L76.1913 14.3701C76.9139 14.5812 77.7697 15.9489 77.9864 17.3753Z" fill="#868686"/>
<path fill-rule="evenodd" clip-rule="evenodd" d="M78.1044 13.7058C78.2411 14.1254 78.2595 14.4932 78.2647 14.8099L78.2243 14.8008C77.4792 14.5337 76.6131 13.3206 76.2152 12.0703C76.0835 11.7089 76.0068 11.3713 75.9727 11.06L76.0087 11.0544C76.6652 11.0022 77.6762 12.1951 78.1044 13.7058Z" fill="#868686"/>
<path fill-rule="evenodd" clip-rule="evenodd" d="M73.4438 26.6414C73.319 26.9029 73.1926 27.138 73.1636 27.459L73.2118 27.5233C74.1174 28.6764 75.4118 28.9062 75.9081 27.8164C76.0265 27.4961 76.0722 27.1258 76.0549 26.7449L76.0014 26.6883C74.9953 25.7306 73.9554 25.8211 73.4438 26.6414Z" fill="#868686"/>
<path fill-rule="evenodd" clip-rule="evenodd" d="M75.9348 23.8516C75.8658 24.1642 75.8724 24.528 75.8825 24.866L75.934 24.9215C76.8831 25.9077 77.9682 25.7389 78.139 24.3501C78.1778 23.9592 78.157 23.5433 78.0672 23.1233L78.0133 23.0782C77.0059 22.328 76.2045 22.7885 75.9348 23.8516Z" fill="#868686"/>
<path fill-rule="evenodd" clip-rule="evenodd" d="M77.7892 20.6039C77.7838 20.9674 77.8408 21.3554 77.9422 21.7505L77.9935 21.7947C78.8813 22.5363 79.7744 22.0347 79.6176 20.4143C79.5929 19.9785 79.4937 19.5219 79.323 19.0746L79.2713 19.0414C78.3712 18.5714 77.7815 19.3226 77.7892 20.6039Z" fill="#868686"/>
<path fill-rule="evenodd" clip-rule="evenodd" d="M78.9066 17.0287C78.9587 17.4266 79.0636 17.8299 79.2052 18.2267L79.2525 18.2577C80.098 18.7798 80.6663 17.9026 80.2903 16.1844C80.2052 15.7181 80.0068 15.2355 79.8186 14.8096L79.773 14.7915C78.9937 14.5878 78.6631 15.6124 78.9066 17.0287Z" fill="#868686"/>
<path fill-rule="evenodd" clip-rule="evenodd" d="M79.1893 13.2822C79.3247 13.7071 79.4407 14.1048 79.6188 14.4897L79.6603 14.5069C80.4208 14.781 80.6922 13.6106 80.1421 11.866C79.9733 11.3841 79.7677 10.927 79.5487 10.5266L79.5098 10.5215C78.8572 10.5733 78.7838 11.8159 79.1893 13.2822Z" fill="#868686"/>
<path fill-rule="evenodd" clip-rule="evenodd" d="M76.9761 7.47622C77.034 7.44367 77.0146 7.29227 76.932 7.13725C75.5964 4.55267 73.9931 2.14162 72.2753 0.119347C72.1721 -0.00647787 72.0709 -0.0374802 72.0488 0.0487412C72.0262 0.134319 72.0889 0.303118 72.1892 0.425129C73.8622 2.39415 75.4249 4.74486 76.7263 7.2631C76.8062 7.41254 76.9183 7.50877 76.9761 7.47622Z" fill="#868686"/>
<path fill-rule="evenodd" clip-rule="evenodd" d="M67.0008 29.5738C67.0436 29.6622 67.1522 29.7378 67.2426 29.741C68.7781 29.8719 70.1 29.5791 71.0829 28.8929C71.1434 28.8525 71.1339 28.7537 71.0618 28.6721C70.9893 28.5897 70.8832 28.5554 70.8244 28.5939C69.8668 29.2633 68.5793 29.5478 67.0828 29.421C66.995 29.4173 66.9584 29.4859 67.0008 29.5738Z" fill="#868686"/>
<path fill-rule="evenodd" clip-rule="evenodd" d="M76.4869 8.96823C76.547 8.94544 76.5418 8.80768 76.4749 8.66009C75.3736 6.2139 74.0124 3.87447 72.5127 1.87473C72.4205 1.75726 72.3236 1.72705 72.2961 1.80452C72.2681 1.88222 72.3184 2.03744 72.4075 2.14959C73.8664 4.09568 75.1898 6.37109 76.2605 8.7492C76.3253 8.89247 76.427 8.99074 76.4869 8.96823Z" fill="#868686"/>
<path fill-rule="evenodd" clip-rule="evenodd" d="M76.1007 11.1069C76.1644 11.1028 76.1753 10.9861 76.1241 10.8481C75.3351 8.55271 74.2947 6.29727 73.1013 4.28296C73.0303 4.16043 72.9438 4.11108 72.9086 4.1736C72.8739 4.23647 72.9013 4.38336 72.97 4.50157C74.1281 6.45667 75.137 8.64434 75.9035 10.8727C75.9532 11.0065 76.0408 11.1114 76.1007 11.1069Z" fill="#868686"/>
<path fill-rule="evenodd" clip-rule="evenodd" d="M78.4599 8.24967C78.5199 8.22721 78.5069 8.07257 78.4311 7.9047C77.1807 5.12012 75.634 2.45791 73.9339 0.186002C73.8299 0.0532846 73.7233 0.0100424 73.6953 0.0865177C73.6681 0.165136 73.7278 0.333272 73.8288 0.460984C75.4883 2.67896 76.997 5.27627 78.2174 7.99344C78.2915 8.1573 78.3995 8.2715 78.4599 8.24967Z" fill="#868686"/>
<path fill-rule="evenodd" clip-rule="evenodd" d="M80.19 10.2147C80.2531 10.2098 80.2536 10.0614 80.1891 9.88368C79.1807 6.9163 77.8435 3.98804 76.315 1.3858C76.2236 1.2284 76.1208 1.15058 76.0858 1.21292C76.0511 1.2753 76.0954 1.4507 76.1845 1.60437C77.6783 4.14686 78.9847 7.00802 79.9702 9.90777C80.0333 10.0818 80.1306 10.2191 80.19 10.2147Z" fill="#868686"/>
</g>
</g>
</g>
<defs>
<clipPath id="clip0_1299_25382">
<rect width="80" height="30" fill="white" transform="translate(0.5)"/>
</clipPath>
<clipPath id="clip1_1299_25382">
<rect width="80" height="30" fill="white" transform="translate(0.5)"/>
</clipPath>
<clipPath id="clip2_1299_25382">
<rect width="80" height="30" fill="white" transform="translate(0.5)"/>
</clipPath>
</defs>
</svg>
