<svg width="16" height="18" viewBox="0 0 16 18" fill="none" xmlns="http://www.w3.org/2000/svg">
<path d="M5.98263 3.57983L6.47713 2.30731C6.56106 2.09267 6.70804 1.90848 6.89871 1.77901C7.08937 1.64955 7.31479 1.58088 7.54526 1.58205H8.47162C8.70124 1.58187 8.92557 1.65101 9.11526 1.78041C9.30496 1.90982 9.45117 2.09346 9.53479 2.30731L10.0293 3.57983L11.6776 4.53586L13.0293 4.33147C13.2553 4.29811 13.4861 4.33338 13.6918 4.43272C13.8975 4.53205 14.0687 4.69087 14.1831 4.8886L14.6479 5.69299C14.7624 5.8918 14.8143 6.12045 14.7969 6.34918C14.7796 6.57791 14.6938 6.79612 14.5507 6.9754L13.6985 8.04352V9.95558L14.5507 11.0237C14.6938 11.203 14.7796 11.4212 14.7969 11.6499C14.8143 11.8786 14.7624 12.1073 14.6479 12.3061L14.1831 13.1105C14.0687 13.3082 13.8975 13.467 13.6918 13.5664C13.4861 13.6657 13.2553 13.701 13.0293 13.6676L11.6776 13.4632L10.0293 14.4193L9.53479 15.6918C9.45117 15.9056 9.30496 16.0893 9.11526 16.2187C8.92557 16.3481 8.70124 16.4172 8.47162 16.4171H7.54526C7.31563 16.4172 7.0913 16.3481 6.90161 16.2187C6.71192 16.0893 6.5657 15.9056 6.48208 15.6918L5.98758 14.4193L4.33925 13.4632L2.98761 13.6676C2.76161 13.701 2.5308 13.6657 2.32507 13.5664C2.11935 13.467 1.94819 13.3082 1.83378 13.1105L1.35246 12.3061C1.23804 12.1073 1.18612 11.8786 1.20347 11.6499C1.22081 11.4212 1.30662 11.203 1.44972 11.0237L2.3019 9.95558V8.04352L1.44972 6.9754C1.30662 6.79612 1.22081 6.57791 1.20347 6.34918C1.18612 6.12045 1.23804 5.8918 1.35246 5.69299L1.81729 4.8886C1.93171 4.69087 2.10287 4.53205 2.30859 4.43272C2.51431 4.33338 2.74513 4.29811 2.97113 4.33147L4.32276 4.53586L5.98263 3.57983ZM5.94802 8.99955C5.94802 9.54601 6.1651 10.0701 6.5515 10.4565C6.9379 10.8429 7.46198 11.06 8.00844 11.06C8.55489 11.06 9.07897 10.8429 9.46537 10.4565C9.85178 10.0701 10.0689 9.54601 10.0689 8.99955C10.0689 8.45309 9.85178 7.92902 9.46537 7.54261C9.07897 7.15621 8.55489 6.93913 8.00844 6.93913C7.46198 6.93913 6.9379 7.15621 6.5515 7.54261C6.1651 7.92902 5.94802 8.45309 5.94802 8.99955Z" stroke="#666F8D" stroke-width="1.3" stroke-linecap="round"/>
</svg>
